# xmcd
#
# Track frame offsets: 
#        150
#        20815
#        39732
#        60472
#        77072
#        100640
#        120447
#        140180
#        159945
#        182152
#        203215
#        221797
#        239582
#        256455
#        278722
#        296870
#
# Disc length: 4266 seconds
#
# Revision: 0
# Processed by: cddbd v1.5.2PL0 Copyright (c) Steve Scherf et al.
# Submitted via: ExactAudioCopyFreeDBPlugin 1.0
#
DISCID=f410a810
DTITLE=刘德华 - 百事巨星来台演唱特辑
DYEAR=1993
DGENRE=Pop
TTITLE0=谢谢你的爱
TTITLE1=该走的时候
TTITLE2=答案就是你
TTITLE3=永远寂寞
TTITLE4=假装
TTITLE5=真我的风采
TTITLE6=只因一个你
TTITLE7=你震撼我的心灵
TTITLE8=不可不信…缘
TTITLE9=情是那么笨
TTITLE10=再吻我吧
TTITLE11=一起走过的日子
TTITLE12=长夜多浪漫
TTITLE13=绝望的笑容
TTITLE14=秋意中等我
TTITLE15=从前我所紧抱的
EXTD=
EXTT0=
EXTT1=
EXTT2=
EXTT3=
EXTT4=
EXTT5=
EXTT6=
EXTT7=
EXTT8=
EXTT9=
EXTT10=
EXTT11=
EXTT12=
EXTT13=
EXTT14=
EXTT15=
PLAYORDER=
